<?xml version="1.0" standalone="no"?>
<!DOCTYPE svg PUBLIC "-//W3C//DTD SVG 20010904//EN"
 "http://www.w3.org/TR/2001/REC-SVG-20010904/DTD/svg10.dtd">
<svg version="1.0" xmlns="http://www.w3.org/2000/svg"
 width="240.000000pt" height="240.000000pt" viewBox="0 0 240.000000 240.000000"
 preserveAspectRatio="xMidYMid meet">
<metadata>
Created by potrace 1.14, written by Peter Selinger 2001-2017
</metadata>
<g transform="translate(0.000000,240.000000) scale(0.100000,-0.100000)"
fill="#000000" stroke="none">
<path d="M331 2368 c-5 -18 -17 -53 -27 -78 -9 -25 -20 -61 -25 -80 -4 -19
-13 -55 -19 -80 -22 -85 -32 -203 -30 -360 1 -110 12 -206 45 -424 14 -88 87
-353 109 -395 10 -18 16 -44 13 -57 -2 -13 1 -25 7 -28 8 -3 8 -7 0 -13 -6 -4
-13 -17 -17 -28 -18 -63 -54 -145 -60 -139 -4 4 -7 1 -7 -6 0 -20 -43 -80 -57
-80 -6 0 -13 -6 -16 -12 -3 -8 -8 -3 -14 11 -5 13 -24 29 -41 37 -29 12 -32
11 -32 -5 0 -19 -49 -71 -67 -71 -6 0 -13 5 -15 12 -2 6 -10 8 -17 4 -18 -11
8 -39 31 -33 13 4 18 0 18 -14 0 -22 -34 -26 -75 -7 -31 14 -43 4 -27 -22 7
-12 8 -20 2 -20 -6 0 -10 -85 -10 -240 l0 -240 380 0 c221 1 380 5 380 10 0 5
-5 21 -12 35 -9 21 -9 31 1 48 11 17 11 22 -3 32 -22 17 -20 29 9 45 14 7 25
17 25 22 0 4 5 8 11 8 6 0 24 9 39 20 18 13 31 17 35 10 3 -6 24 -19 46 -31
l40 -20 -11 20 c-6 12 -7 21 -2 21 15 0 21 51 10 79 -5 14 -6 22 -2 18 4 -4
20 12 35 35 27 40 28 47 23 125 -5 92 5 123 38 123 12 0 30 7 40 17 13 11 41
17 96 19 85 4 94 6 135 22 50 21 28 30 -69 28 -52 -1 -97 1 -99 5 -3 3 -18 9
-35 13 -17 3 -55 22 -84 41 -29 19 -58 35 -64 35 -22 0 -103 96 -133 159 -25
52 -34 86 -40 161 -5 52 -16 132 -24 176 -14 70 -14 101 -5 210 7 70 9 145 6
166 -4 26 -1 48 9 68 8 16 27 62 41 102 24 66 50 114 87 161 8 9 57 37 109 61
94 44 96 45 159 36 60 -9 161 -1 202 15 10 4 17 3 17 -4 0 -6 24 -26 53 -44
28 -19 71 -54 95 -78 51 -51 122 -188 122 -233 0 -17 9 -58 19 -91 23 -74 35
-219 22 -262 -6 -20 -6 -45 -1 -63 6 -22 5 -34 -6 -45 -14 -13 -14 -16 0 -21
22 -8 39 5 33 27 -3 10 -1 22 4 25 5 3 9 -6 9 -21 0 -35 -34 -84 -85 -123 -39
-29 -44 -39 -50 -85 -3 -29 -16 -81 -27 -117 -39 -123 -24 -350 22 -350 13 0
13 17 0 25 -5 3 -10 11 -10 16 0 5 14 -5 31 -23 17 -18 42 -45 56 -60 16 -17
37 -28 53 -28 15 0 39 -9 54 -21 26 -20 66 -87 66 -110 0 -6 10 -32 23 -58 23
-47 38 -93 80 -256 l23 -90 151 -3 151 -3 -9 38 c-28 113 -58 276 -61 336 l-4
68 98 -3 98 -3 0 529 c0 291 -2 527 -4 525 -9 -9 -118 -317 -181 -509 -69
-213 -87 -260 -93 -241 -9 28 -22 -5 -22 -57 0 -69 -12 -58 -29 28 -7 36 -29
93 -48 128 -19 34 -33 69 -30 76 3 8 -1 20 -9 27 -34 28 -39 57 -45 244 -4
135 -11 207 -23 250 -10 33 -24 105 -32 160 -38 270 -40 275 -117 360 -34 39
-80 94 -101 122 -78 108 -184 184 -291 208 -49 11 -50 12 -64 63 l-14 52 -478
0 -478 0 -10 -32z m1568 -1488 c5 0 14 -14 21 -30 7 -17 21 -35 30 -40 10 -5
22 -27 28 -49 9 -39 7 -51 -9 -51 -10 0 -59 93 -59 110 0 6 -9 21 -21 33 -23
25 -39 60 -39 85 1 9 10 0 21 -20 11 -21 23 -38 28 -38z m109 -239 c-11 -4
-48 28 -48 42 0 5 7 7 15 3 8 -3 15 0 15 7 1 7 7 -1 14 -18 7 -16 9 -32 4 -34z
m32 -62 c0 -6 -4 -7 -10 -4 -5 3 -10 11 -10 16 0 6 5 7 10 4 6 -3 10 -11 10
-16z m-1945 -148 c3 -5 1 -12 -5 -16 -5 -3 -10 1 -10 9 0 18 6 21 15 7z m745
-162 c0 -8 -57 -61 -66 -61 -21 1 -18 36 4 62 21 24 28 26 43 17 11 -7 19 -14
19 -18z m-781 -65 c-19 -19 -35 -31 -37 -25 -4 12 62 79 67 68 2 -5 -12 -24
-30 -43z"/>
<path d="M1961 734 c0 -11 3 -14 6 -6 3 7 2 16 -1 19 -3 4 -6 -2 -5 -13z"/>
<path d="M885 1603 c-51 -33 -49 -32 -42 -39 3 -4 23 1 43 11 45 21 126 15
164 -13 45 -33 105 -49 116 -31 12 20 -27 58 -81 78 -79 30 -150 28 -200 -6z"/>
<path d="M1379 1595 c-25 -8 -53 -23 -61 -32 -20 -22 -31 -135 -13 -131 6 2
22 -10 36 -25 16 -18 38 -30 64 -34 36 -6 39 -5 26 10 -12 15 -9 17 33 13 25
-3 46 -1 46 5 0 5 -4 9 -10 9 -5 0 -10 8 -10 18 1 16 1 16 14 0 7 -10 16 -15
20 -11 4 4 4 -1 0 -11 -6 -16 -5 -17 17 -4 32 18 39 29 30 47 -5 9 -6 21 -4
28 8 22 -58 46 -126 46 -56 0 -62 1 -47 13 29 21 122 28 167 14 53 -18 57 -8
12 23 -48 33 -130 43 -194 22z m-14 -94 c-3 -6 -14 -11 -23 -11 -15 1 -15 2 2
15 21 16 32 13 21 -4z"/>
<path d="M962 1530 c-45 -7 -92 -45 -92 -74 0 -9 12 -19 28 -22 15 -4 44 -18
64 -31 44 -27 51 -28 68 -8 10 11 16 12 26 4 11 -9 23 -2 54 30 25 25 35 41
26 41 -21 0 -67 48 -53 54 7 2 -2 5 -20 5 -17 1 -37 3 -45 5 -7 2 -32 0 -56
-4z m-2 -85 c0 -8 -7 -15 -15 -15 -26 0 -18 20 13 29 1 1 2 -6 2 -14z m110 -5
c0 -5 -7 -10 -16 -10 -8 0 -12 5 -9 10 3 6 10 10 16 10 5 0 9 -4 9 -10z"/>
<path d="M1640 1190 c0 -5 6 -10 14 -10 8 0 18 5 21 10 3 6 -3 10 -14 10 -12
0 -21 -4 -21 -10z"/>
<path d="M1144 1169 c-7 -12 12 -29 34 -29 19 0 39 -23 34 -38 -2 -8 7 -12 26
-12 40 0 62 9 62 25 0 8 9 16 19 20 31 9 35 35 5 35 -13 0 -27 -6 -29 -12 -8
-21 -65 -19 -93 2 -28 22 -48 25 -58 9z"/>
<path d="M1177 1029 c-7 -4 -43 -10 -82 -14 -67 -7 -85 -16 -85 -42 0 -15 162
-15 171 -1 4 6 17 4 32 -7 16 -10 31 -13 39 -9 7 5 52 7 101 6 85 -3 87 -3 87
20 0 22 -7 25 -67 36 -80 14 -179 20 -196 11z"/>
<path d="M1290 923 c-44 -13 -81 -13 -127 2 -16 5 -23 3 -23 -6 0 -28 18 -40
69 -46 43 -5 61 -2 101 18 27 13 49 27 50 30 0 14 -27 15 -70 2z"/>
<path d="M2091 784 c0 -11 3 -14 6 -6 3 7 2 16 -1 19 -3 4 -6 -2 -5 -13z"/>
<path d="M249 704 c-6 -16 -15 -36 -19 -45 -5 -9 -6 -20 -3 -23 4 -4 15 15 25
41 9 26 16 49 13 51 -2 3 -9 -8 -16 -24z"/>
<path d="M15 630 c3 -5 15 -10 25 -10 10 0 22 5 25 10 4 6 -7 10 -25 10 -18 0
-29 -4 -25 -10z"/>
<path d="M80 629 c0 -5 5 -7 10 -4 6 3 10 8 10 11 0 2 -4 4 -10 4 -5 0 -10 -5
-10 -11z"/>
<path d="M0 570 c0 -5 7 -10 16 -10 8 0 12 5 9 10 -3 6 -10 10 -16 10 -5 0 -9
-4 -9 -10z"/>
</g>
</svg>
