<?xml version="1.0" encoding="utf-8"?>
<!-- Generator: Adobe Illustrator 16.0.0, SVG Export Plug-In . SVG Version: 6.00 Build 0)  -->
<!DOCTYPE svg PUBLIC "-//W3C//DTD SVG 1.1//EN" "http://www.w3.org/Graphics/SVG/1.1/DTD/svg11.dtd">
<svg version="1.1" id="Layer_1" xmlns="http://www.w3.org/2000/svg" xmlns:xlink="http://www.w3.org/1999/xlink" x="0px" y="0px"
	 width="252px" height="99px" viewBox="0 0 252 99" enable-background="new 0 0 252 99" xml:space="preserve">
<g>
	<rect y="90.5" fill="#333333" width="252" height="9"/>
	<rect x="206" y="26.5" fill="#6E7999" width="24" height="64"/>
	<rect x="168" y="32.5" fill="#CEB2D2" width="24" height="58"/>
	<rect x="168" y="32.5" fill="#93609C" width="24" height="12"/>
	<rect x="168" y="46.5" fill="#93609C" width="24" height="3"/>
	<rect x="168" y="87.5" fill="#93609C" width="24" height="3"/>
	<rect x="192" y="12.5" fill="#47526E" width="14" height="78"/>
	<rect x="154" y="15.5" fill="#73487D" width="14" height="75"/>
	<rect x="12" y="56.5" fill="#73487D" width="75" height="10"/>
	<rect x="16" y="56.5" fill="#CEB2D2" width="3" height="10"/>
	<rect x="80" y="56.5" fill="#CEB2D2" width="3" height="10"/>
	
		<rect x="114.909" y="13.209" transform="matrix(0.8747 0.4847 -0.4847 0.8747 40.7548 -51.2098)" fill="#CEB2D2" width="9" height="79.999"/>
	
		<rect x="129.449" y="21.966" transform="matrix(0.8747 0.4846 -0.4846 0.8747 29.849 -61.5357)" fill="#93609C" width="8.999" height="10.001"/>
	
		<rect x="125.329" y="32.902" transform="matrix(0.8747 0.4847 -0.4847 0.8747 32.9404 -58.6121)" fill="#93609C" width="9.001" height="3"/>
	
		<rect x="136.909" y="0.208" transform="matrix(0.9687 0.248 -0.248 0.9687 15.633 -33.6632)" fill="#5E637F" width="9" height="90"/>
	<rect x="145.59" y="6.302" transform="matrix(0.9687 0.248 -0.248 0.9687 7.494 -36.8762)" fill="#6E7999" width="9" height="10"/>
	
		<rect x="143.606" y="18.052" transform="matrix(0.9687 0.248 -0.248 0.9687 9.3543 -36.1419)" fill="#6E7999" width="9" height="2"/>
	<rect x="192" y="18.5" fill="#5E637F" width="14" height="11"/>
	<rect x="206" y="26.5" fill="#626A8E" width="24" height="7"/>
	<rect x="206" y="83.5" fill="#626A8E" width="24" height="7"/>
	<rect x="206" y="35.5" fill="#626A8E" width="24" height="2"/>
	<rect x="206" y="80.5" fill="#626A8E" width="24" height="2"/>
	<rect x="25" y="66.5" fill="#47526E" width="70" height="24"/>
	<rect x="87" y="66.5" fill="#626A8E" width="8" height="24"/>
	<rect x="25" y="66.5" fill="#626A8E" width="8" height="24"/>
	<rect x="83" y="66.5" fill="#626A8E" width="2" height="24"/>
	<rect x="35" y="66.5" fill="#626A8E" width="2" height="24"/>
</g>
</svg>
