<?xml version="1.0" encoding="utf-8"?>
<!-- Generator: Adobe Illustrator 16.0.0, SVG Export Plug-In . SVG Version: 6.00 Build 0)  -->
<!DOCTYPE svg PUBLIC "-//W3C//DTD SVG 1.1//EN" "http://www.w3.org/Graphics/SVG/1.1/DTD/svg11.dtd">
<svg version="1.1" id="Layer_1" xmlns="http://www.w3.org/2000/svg" xmlns:xlink="http://www.w3.org/1999/xlink" x="0px" y="0px"
	 width="130px" height="200px" viewBox="0 0 130 200" enable-background="new 0 0 130 200" xml:space="preserve">
<g>
	<linearGradient id="SVGID_1_" gradientUnits="userSpaceOnUse" x1="76.7041" y1="136.9053" x2="76.0695" y2="200.3988">
		<stop  offset="0" style="stop-color:#000000;stop-opacity:0.2"/>
		<stop  offset="1" style="stop-color:#000000;stop-opacity:0"/>
	</linearGradient>
	<polygon fill="url(#SVGID_1_)" points="22.659,133 88.909,200 130.159,200 62.909,133 	"/>
	<polygon fill="#626A8E" points="13.784,88 22.659,133 62.909,133 71.659,88 	"/>
	<polygon fill="#47526E" points="67.965,107 69.909,97 15.56,97 17.532,107 	"/>
	<path fill="#333333" d="M38.826,88c0,0,0.518-54,1.897-66h2.759c0,0,1.725,31,2.76,66H38.826z"/>
	<g>
		<path fill="#73487D" d="M64.911,23.87c0,2.712-6.311,4.148-7.289,6.506c-1.014,2.444,2.394,7.915,0.551,9.757
			s-7.313-1.565-9.757-0.552c-2.358,0.978-3.794,7.289-6.506,7.289c-2.711,0-4.148-6.311-6.506-7.289
			c-2.444-1.014-7.915,2.394-9.756,0.551c-1.842-1.842,1.565-7.312,0.552-9.756c-0.978-2.358-7.289-3.794-7.289-6.506
			s6.311-4.148,7.289-6.506c1.014-2.444-2.394-7.915-0.552-9.757c1.842-1.842,7.313,1.565,9.757,0.552
			c2.358-0.978,3.794-7.289,6.506-7.289c2.712,0,4.148,6.311,6.506,7.289c2.444,1.014,7.915-2.394,9.757-0.552
			c1.842,1.842-1.565,7.313-0.552,9.757C58.6,19.722,64.911,21.158,64.911,23.87z"/>
	</g>
	<circle fill="#D3CFD7" cx="41.911" cy="22.87" r="9"/>
	<circle fill="#CEB2D2" cx="41.911" cy="22.87" r="6.667"/>
	<g>
		<path fill="#333333" d="M0.146,56.976c0,0,13.452-9.646,33.635-1.1c0,0,12.831,7.808,8.626,18.563l-1.247,6.014
			c0,0-10.536-0.509-15.538-3.146c0,0-5.815-2.855-10.381-10.073C15.24,67.234,13.253,63.465,0.146,56.976z"/>
		<path fill="none" stroke="#3E3E3E" stroke-miterlimit="10" d="M0.909,56.953c0,0,26-1.25,38,15"/>
	</g>
	<g>
		<path fill="#333333" d="M85.253,48.976c0,0-13.452-9.646-33.635-1.1c0,0-12.831,7.808-8.626,18.563l1.247,6.014
			c0,0,10.536-0.509,15.538-3.146c0,0,5.815-2.855,10.381-10.073C70.158,59.234,72.146,55.465,85.253,48.976z"/>
		<path fill="none" stroke="#3E3E3E" stroke-miterlimit="10" d="M84.489,48.953c0,0-26-1.25-38,15"/>
	</g>
</g>
</svg>
